<svg width="15" height="15" viewBox="0 0 15 15" fill="none" xmlns="http://www.w3.org/2000/svg">
<g clip-path="url(#clip0_384_1861)">
<path d="M14.5208 13.6626L10.9507 9.94962C11.8687 8.85844 12.3716 7.48552 12.3716 6.05624C12.3716 2.71688 9.65471 0 6.31535 0C2.97599 0 0.259109 2.71688 0.259109 6.05624C0.259109 9.3956 2.97599 12.1125 6.31535 12.1125C7.56899 12.1125 8.76365 11.7344 9.78505 11.0166L13.3822 14.7578C13.5325 14.9139 13.7348 15 13.9515 15C14.1566 15 14.3512 14.9218 14.4989 14.7796C14.8128 14.4776 14.8228 13.9768 14.5208 13.6626ZM6.31535 1.57989C8.78367 1.57989 10.7917 3.58793 10.7917 6.05624C10.7917 8.52456 8.78367 10.5326 6.31535 10.5326C3.84704 10.5326 1.839 8.52456 1.839 6.05624C1.839 3.58793 3.84704 1.57989 6.31535 1.57989Z" fill="#546070"/>
</g>
<defs>
<clipPath id="clip0_384_1861">
<rect width="15" height="15" fill="white"/>
</clipPath>
</defs>
</svg>
